<svg width="20" height="20" viewBox="0 0 20 20" fill="none" xmlns="http://www.w3.org/2000/svg">
<path d="M17 5C17 3.89688 16.1031 3 15 3H5C3.89688 3 3 3.89688 3 5V15C3 16.1031 3.89688 17 5 17H15C16.1031 17 17 16.1031 17 15V5ZM11 6.75C11 7.16563 10.6656 7.5 10.25 7.5H6.75C6.33437 7.5 6 7.16563 6 6.75C6 6.33437 6.33437 6 6.75 6H10.25C10.6656 6 11 6.33437 11 6.75ZM13.25 9.25C13.6656 9.25 14 9.58437 14 10C14 10.4156 13.6656 10.75 13.25 10.75H6.75C6.33437 10.75 6 10.4156 6 10C6 9.58437 6.33437 9.25 6.75 9.25H13.25ZM9 13.25C9 13.6656 8.66563 14 8.25 14H6.75C6.33437 14 6 13.6656 6 13.25C6 12.8344 6.33437 12.5 6.75 12.5H8.25C8.66563 12.5 9 12.8344 9 13.25Z" fill="#009688"/>
</svg>
